<svg xmlns="http://www.w3.org/2000/svg" width="57.807" height="57.807" viewBox="0 0 57.807 57.807">
  <g id="exclusion" transform="translate(-246.816 -16.388)">
    <g id="Group_180" data-name="Group 180">
      <path id="Path_327" data-name="Path 327" d="M304.623,45.292c0,2.488-2.513,4.613-3.126,6.908-.635,2.374.46,5.467-.743,7.546-1.22,2.109-4.457,2.7-6.169,4.412s-2.3,4.948-4.411,6.168c-2.079,1.2-5.172.108-7.546.743-2.295.613-4.42,3.126-6.908,3.126s-4.613-2.513-6.908-3.126c-2.375-.635-5.468.46-7.547-.743-2.109-1.22-2.7-4.457-4.411-6.169s-4.949-2.3-6.169-4.411c-1.2-2.079-.108-5.172-.742-7.546-.614-2.3-3.127-4.42-3.127-6.908s2.513-4.614,3.127-6.908c.634-2.375-.461-5.468.742-7.547,1.22-2.109,4.458-2.7,6.169-4.411s2.3-4.949,4.411-6.169c2.079-1.2,5.172-.108,7.547-.743,2.295-.613,4.419-3.126,6.908-3.126s4.613,2.513,6.908,3.126c2.375.635,5.468-.46,7.547.743,2.108,1.22,2.7,4.458,4.411,6.169s4.948,2.3,6.169,4.411c1.2,2.079.107,5.172.742,7.546C302.11,40.678,304.623,42.8,304.623,45.292Z" fill="#ff622a"/>
    </g>
    <g id="Group_181" data-name="Group 181">
      <line id="Line_16" data-name="Line 16" y1="23.25" x2="23.25" transform="translate(264.095 33.667)" fill="none" stroke="#fff" stroke-width="7"/>
      <line id="Line_17" data-name="Line 17" x2="23.25" y2="23.25" transform="translate(264.095 33.667)" fill="none" stroke="#fff" stroke-width="7"/>
    </g>
  </g>
</svg>
