<svg xmlns="http://www.w3.org/2000/svg" width="57.806" height="57.807" viewBox="0 0 57.806 57.807">
  <g id="inclusion" transform="translate(-150.097 -77.763)">
    <g id="Group_179" data-name="Group 179">
      <path id="Path_325" data-name="Path 325" d="M207.9,106.667c0,2.488-2.512,4.613-3.126,6.908-.634,2.374.46,5.467-.742,7.546-1.221,2.109-4.458,2.7-6.17,4.412s-2.3,4.948-4.41,6.168c-2.079,1.2-5.172.108-7.547.743-2.295.613-4.42,3.126-6.908,3.126s-4.613-2.513-6.908-3.126c-2.375-.635-5.468.46-7.547-.743-2.109-1.22-2.7-4.457-4.411-6.169s-4.949-2.3-6.169-4.411c-1.2-2.079-.108-5.172-.742-7.546-.614-2.295-3.126-4.42-3.126-6.908s2.512-4.614,3.126-6.908c.634-2.375-.46-5.468.742-7.547,1.221-2.109,4.458-2.7,6.17-4.411s2.3-4.949,4.41-6.169c2.079-1.2,5.172-.108,7.547-.743,2.295-.613,4.42-3.126,6.908-3.126s4.613,2.513,6.908,3.126c2.375.635,5.468-.46,7.547.743,2.109,1.22,2.7,4.458,4.411,6.169s4.949,2.3,6.169,4.411c1.2,2.079.108,5.172.742,7.546C205.391,102.053,207.9,104.178,207.9,106.667Z" fill="#22aa25"/>
    </g>
    <path id="Path_326" data-name="Path 326" d="M165.52,107.668l8.853,8.853,20.335-20.335" fill="none" stroke="#fff" stroke-width="7"/>
  </g>
</svg>
