<svg id="logo_1_" data-name="logo (1)" xmlns="http://www.w3.org/2000/svg" width="196.837" height="89.563" viewBox="0 0 196.837 89.563">
  <path id="Path_1" data-name="Path 1" d="M50.207,18.612c-.541.432-1.027.838-1.541,1.243a12.2,12.2,0,0,1-4.649,2.054,18.374,18.374,0,0,1-7.677-.081,31.289,31.289,0,0,1-6.406-2.135,8.183,8.183,0,0,1-1.351-.73c.622.216,1.243.46,1.865.649a32.6,32.6,0,0,0,5.6,1.406,23.412,23.412,0,0,0,6.731.108,15.073,15.073,0,0,0,7.109-2.865c-.432-.432-.838-.865-1.27-1.3a65.763,65.763,0,0,0-6.244-5.352c-.405-.3-.811-.622-1.243-.919a.457.457,0,0,0-.378-.027c-1.433.595-2.865,1.189-4.271,1.865-2,.973-4,1.973-5.974,3-1.108.568-2.162,1.216-3.244,1.811a3.965,3.965,0,0,1-.351.243q.189.243.351.432c-.433-.432-.838-.189-1.3.135-.973.676-1.973,1.3-2.946,1.973A53.411,53.411,0,0,0,17.2,24.775a.434.434,0,0,0-.135.595,17.649,17.649,0,0,0,2.568,4.136,16.794,16.794,0,0,1-3.19-4.055c-.622.649-1.216,1.243-1.784,1.892a31.646,31.646,0,0,0-3.568,4.649,2.462,2.462,0,0,1-.27.379c-.649.784-.162,1.568.081,2.3a24.441,24.441,0,0,0,4.46,7.92,26.494,26.494,0,0,0,4.568,4.3c.622.46,1.243.892,1.838,1.351A26.309,26.309,0,0,1,9.554,34.777,20.279,20.279,0,0,0,8.067,48.67c-.189-.541-.405-1.081-.568-1.649a18.214,18.214,0,0,1-.892-6.028,17.286,17.286,0,0,1,1.46-6.785c.216-.514.46-1,.676-1.514a.622.622,0,0,0,.054-.379,20.88,20.88,0,0,1-.189-9.055A23.947,23.947,0,0,1,10.8,17.1a.59.59,0,0,0,.081-.135c-1.757,1.568-5.3,8.515-6.136,11.569A38.265,38.265,0,0,0,3.337,41.615,35.833,35.833,0,0,0,6.769,54.347C5.742,53.319,3.5,47.183,2.877,44.021a37.559,37.559,0,0,1-.541-11,35.29,35.29,0,0,1,2.7-10.65,35.985,35.985,0,0,1,5.784-9.38A36.642,36.642,0,0,1,70.8,54.509q.243-.514.487-1.054A32.978,32.978,0,0,0,73.48,46.94a25.85,25.85,0,0,0,.784-5.352,20.112,20.112,0,0,0-.27-3.379,31.348,31.348,0,0,0-1.27-5.676,30.729,30.729,0,0,0-2.352-5.271c-.3-.486-.595-.973-.946-1.541,0,.189-.027.243-.027.324a21.644,21.644,0,0,1-.649,6.6,22.288,22.288,0,0,1-3.73,7.731.653.653,0,0,0-.081.433c.568,2.081,1.162,4.136,1.676,6.217.324,1.324.486,2.7.7,4.082a16.9,16.9,0,0,1,.216,1.919A62.055,62.055,0,0,0,64.4,41.291c-.973,1-1.919,2-2.865,3a.423.423,0,0,1-.108-.081,8.625,8.625,0,0,0,.676-.73c.676-.784,1.325-1.595,1.973-2.406a.686.686,0,0,0,.054-.514c-.946-2.135-1.865-4.271-2.865-6.352-.7-1.487-1.568-2.892-2.379-4.325a.744.744,0,0,0-.189-.243c-.27.216-.514.46-.784.676a.078.078,0,0,1-.027-.054,2.433,2.433,0,0,1,.433-.486c.324-.243.243-.46.054-.73-1.27-1.784-2.46-3.649-3.784-5.379-1.324-1.676-2.784-3.244-4.163-4.839A1.643,1.643,0,0,0,50.207,18.612ZM52.18,6.368a11.83,11.83,0,0,0-2.595-1.189,12.756,12.756,0,0,1,1.108,1c.324.3.595.514,1.027.324q-.189.108-.405.216c.027.027.027.054.054.081a7.829,7.829,0,0,1,2.189,5.649c-.027.108.135.27.27.324.432.189.919.324,1.352.514a36.686,36.686,0,0,1,5.6,2.919c.3.189.568.351.919.568a1.044,1.044,0,0,1-.027-.243,15.919,15.919,0,0,0-4.379-6.7,18.959,18.959,0,0,0-3.622-2.7C53.181,6.827,52.667,6.611,52.18,6.368ZM50.748,18.045a62.045,62.045,0,0,1,8.488,10.623,2.611,2.611,0,0,1,.189-.243A14.207,14.207,0,0,0,61.8,23.478a12.1,12.1,0,0,0,.3-4.92.781.781,0,0,0-.3-.487c-.946-.622-1.865-1.27-2.865-1.811-1.46-.784-2.973-1.487-4.46-2.189a8.2,8.2,0,0,0-1.135-.433c-.135.433-.27.811-.405,1.216a4.052,4.052,0,0,1,.108-1,.376.376,0,0,0-.3-.46c-1.3-.432-2.595-.919-3.892-1.27-1.811-.487-3.649-.892-5.487-1.325-.486-.108-.973-.162-1.46-.243a73.568,73.568,0,0,1,8.623,7.325c.514-.514.973-.973,1.433-1.46v.027C51.559,16.964,51.153,17.5,50.748,18.045Zm13.11,1.514-.108.054a15.447,15.447,0,0,1-4.379,9.326,57.04,57.04,0,0,1,5.352,11.218c.378-.649.7-1.216,1.027-1.811A22.562,22.562,0,0,0,68.29,24.613a1.421,1.421,0,0,0-.27-.757A25.9,25.9,0,0,0,66.209,21.8C65.452,21.018,64.641,20.315,63.857,19.558ZM27.367,5.719a.024.024,0,0,0-.027-.027c-.486.243-1,.46-1.487.73a21.545,21.545,0,0,0-4.784,3.3A17.95,17.95,0,0,0,17.636,14.1a13.138,13.138,0,0,0-1.46,8.082c.054.432.162.838.243,1.243,1.595-1.189,3.108-2.352,4.7-3.433,1.595-1.108,3.271-2.081,4.893-3.108a7.3,7.3,0,0,1-1.433-7.46h-.757a.583.583,0,0,1,.351-.054c.351.054.487-.135.649-.432a16.293,16.293,0,0,1,1.216-1.811A12.954,12.954,0,0,1,27.367,5.719ZM40.1,10.341v-.108c-1.406-.135-2.838-.3-4.244-.46A88.958,88.958,0,0,0,26.961,9.4a.6.6,0,0,0-.46.243,6.54,6.54,0,0,0-1.135,3.514,6.639,6.639,0,0,0,.973,3.622A109.653,109.653,0,0,1,40.1,10.341Zm-7.46-5.19c.486.243.973.46,1.406.73,2.108,1.216,4.19,2.487,6.325,3.676a2.189,2.189,0,0,0,1.324.189,9.394,9.394,0,0,0,1.595-.568q2.189-.757,4.406-1.487.851-.284,1.784-.568C45.234,3.746,37.584,3.151,32.637,5.151ZM16.69,11.287a.315.315,0,0,1-.081-.054,24.271,24.271,0,0,0-5.568,8.893A22.1,22.1,0,0,0,9.959,30.587c.487-.649.892-1.216,1.324-1.811a35.211,35.211,0,0,1,4.379-4.6.333.333,0,0,0,.027-.324,12.5,12.5,0,0,1-1-4.217,13.587,13.587,0,0,1,1.27-6.92C16.2,12.233,16.446,11.747,16.69,11.287Zm22.841-1.7a1.758,1.758,0,0,1-.216-.189q-3.379-2.054-6.785-4.082c-.081-.081-.27-.054-.378-.027A13.1,13.1,0,0,0,27.8,8.044,12.286,12.286,0,0,0,26.718,9.26,101.161,101.161,0,0,1,39.53,9.584Zm3.054.3a60.082,60.082,0,0,1,10.434,2.595,14.445,14.445,0,0,0-.459-1.595,8.454,8.454,0,0,0-2.406-3.271.867.867,0,0,0-1.027-.189c-.7.3-1.433.514-2.162.784ZM74.372,38.75a34.934,34.934,0,0,0-7.541-21.759q-.027.081,0,.108a22.853,22.853,0,0,1,2.27,6.352,2.9,2.9,0,0,0,.379,1.054A30.017,30.017,0,0,1,72.8,31.317,31.662,31.662,0,0,1,74.372,38.75ZM61.911,11.585a.162.162,0,0,0,.027.108,14.155,14.155,0,0,1,1.838,6.433.67.67,0,0,0,.216.405c.784.73,1.568,1.433,2.352,2.162.514.514.973,1.054,1.46,1.595A23.006,23.006,0,0,0,61.911,11.585Z" transform="translate(0.416 0)" fill="#7b0097" fill-rule="evenodd"/>
  <path id="Path_2" data-name="Path 2" d="M24.966,27.007a4.42,4.42,0,0,1,1.3-.541c2.271-.135,4.541-.135,6.812-.3a23.751,23.751,0,0,0,2.7-.514,2.276,2.276,0,0,1,.946.108c1.865.622,2.7.216,3.757-1.46,1.189-1.919,2.541-3.757,3.838-5.6a13.583,13.583,0,0,1,1.135-1,6.367,6.367,0,0,1,0,1.622c-.649,2.189-1.324,4.406-2.108,6.568-.595,1.649-.378,2.541,1.135,3.541a1.97,1.97,0,0,1,.595.73,26.205,26.205,0,0,0,1.189,2.838c1.054,1.892,2.216,3.7,3.3,5.568A3.513,3.513,0,0,1,49.7,39.9a3.419,3.419,0,0,1-1.108-.46c-1.054-.946-2-2-3.082-2.892-1.324-1.135-2.73-2.189-4.136-3.19-.919-.649-1.514-.432-2.108.541-1.135,1.838-2.217,3.7-3.406,5.487a2.4,2.4,0,0,0-.081,2.73c.487.865.919,1.784,1.352,2.7a2.779,2.779,0,0,1-.027.811,2.383,2.383,0,0,1-.784-.189,15.8,15.8,0,0,1-1.325-1.027A14,14,0,0,0,28.778,41.6a2.908,2.908,0,0,1-.919-.622c.351-.27.649-.676,1.027-.757,1.027-.216,2.081-.3,3.108-.433a1.882,1.882,0,0,0,1.622-1.324c.811-1.946,1.649-3.919,2.514-5.839.649-1.514.324-2-1.3-2.433-3.244-.865-6.46-1.838-9.7-2.784Q25.047,27.224,24.966,27.007Z" transform="translate(4.817 3.417)"/>
  <path id="Path_3" data-name="Path 3" d="M25.976,36.131c1.7,2.243,3.244,4.271,4.757,6.325,1.838,2.406,3.676,4.811,5.46,7.244a2.216,2.216,0,0,1,.405,1.271Q36.113,61.485,35.545,72a1.369,1.369,0,0,1-.46.865q-5.92,4.811-11.893,9.542a1.064,1.064,0,0,1-.892.135C14.894,78.974,7.541,75.406.162,71.838A.356.356,0,0,1,0,71.568H25.976Z" transform="translate(0 6.972)" fill="#7b0097"/>
  <path id="Path_4" data-name="Path 4" d="M68.175,71.531q-2.838,1.379-5.7,2.757c-5.487,2.676-10.974,5.325-16.462,8a1.108,1.108,0,0,1-1.406-.162c-3.838-3.108-7.7-6.163-11.515-9.3a1.815,1.815,0,0,1-.649-1.216c-.405-7-.757-14.029-1.081-21.03a1.251,1.251,0,0,1,.243-.811c3.379-4.541,6.812-9.055,10.217-13.6.027-.027.108-.054.243-.135V71.288H68.121Q68.148,71.4,68.175,71.531Z" transform="translate(6.05 6.954)"/>
  <path id="Path_5" data-name="Path 5" d="M65.256,55.362H63.012c-2.811,0-5.6.027-8.379-.027a2.424,2.424,0,0,1-1.3-.378Q48.091,51.469,42.9,47.9a1.346,1.346,0,0,1-.595-.946c-.027-3.541-.027-7.109-.027-10.65a3.21,3.21,0,0,1,.108-.378C49.983,42.387,57.525,48.793,65.256,55.362Z" transform="translate(8.158 6.932)"/>
  <path id="Path_6" data-name="Path 6" d="M42.372,65.469V54.008h22.57C57.32,57.873,49.913,61.657,42.372,65.469Z" transform="translate(8.176 10.421)" fill="#7b0097"/>
  <path id="Path_7" data-name="Path 7" d="M71.333,55.761l-4.217-4.217V47.328l4.217,4.217H75.55V38.895h4.244v12.65L75.55,55.761Z" transform="translate(12.95 7.505)" fill="#7b0097"/>
  <path id="Path_8" data-name="Path 8" d="M83.134,55.761l-4.217-4.217V43.111l4.217-4.217h8.433l4.217,4.217v8.433l-4.217,4.217Zm8.461-4.217V43.111H83.134v8.433Z" transform="translate(15.227 7.505)" fill="#7b0097" fill-rule="evenodd"/>
  <path id="Path_9" data-name="Path 9" d="M98.482,55.761l-4.244-4.217V43.111l4.244-4.217v12.65h8.433V38.895l4.217,4.217v8.433l-4.217,4.217Z" transform="translate(18.184 7.505)" fill="#7b0097"/>
  <path id="Path_10" data-name="Path 10" d="M122.256,55.761V54.356l-4.217-4.217H113.8l4.243-4.217h4.217V43.111H113.8l-4.217-4.217h12.678l4.217,4.217v2.811l-4.217,4.217,4.217,4.217v1.406Zm-12.678-4.217V43.111h4.243v12.65Z" transform="translate(21.144 7.505)" fill="#7b0097" fill-rule="evenodd"/>
  <path id="Path_11" data-name="Path 11" d="M137.593,51.545l-12.678-12.65h4.217l8.46,8.433V38.895h4.216v12.65l-4.216,4.217Zm-12.678,0V43.111h4.217v12.65Z" transform="translate(24.103 7.505)" fill="#7b0097" fill-rule="evenodd"/>
  <path id="Path_12" data-name="Path 12" d="M144.471,43.111l-4.217-4.217H152.9v4.217Zm0,12.65-4.217-4.217V43.111h4.217l4.217,4.217h-4.217v4.217h8.46v4.217Z" transform="translate(27.063 7.505)" fill="#7b0097"/>
  <path id="Path_13" data-name="Path 13" d="M152.04,43.111V38.895h4.243v4.217l1.405,1.406v4.217Zm5.621,12.677V48.734l5.622-5.622V38.895H167.5v4.217l-5.622,5.622v7.055Z" transform="translate(29.337 7.505)" fill="#7b0097"/>
  <path id="Path_14" data-name="Path 14" d="M71.335,61.192l-4.217-4.217H79.8v4.217Zm0,12.677-4.244-4.244V61.192h4.244l4.217,4.217H71.335v4.217h8.433v4.244Z" transform="translate(12.946 10.994)"/>
  <path id="Path_15" data-name="Path 15" d="M91.567,61.192,87.35,65.409l-8.433-8.433h4.217l4.217,4.217,4.217-4.217h4.217v12.65l-4.217,4.244Zm-12.65,8.433V61.192h4.217v12.65Z" transform="translate(15.227 10.994)" fill-rule="evenodd"/>
  <path id="Path_16" data-name="Path 16" d="M98.482,68.22,102.7,64h4.217V61.192H98.482l-4.244-4.217h12.677l4.217,4.217V64l-4.217,4.217Zm-4.217,1.406V61.192h4.217V73.869Z" transform="translate(18.184 10.994)"/>
  <path id="Path_17" data-name="Path 17" d="M109.578,69.626V56.976H113.8V73.869Z" transform="translate(21.144 10.994)"/>
  <path id="Path_18" data-name="Path 18" d="M126.966,73.869V72.464L122.75,68.22h-4.217L122.75,64h4.216V61.192h-8.433l-4.243-4.217h12.676l4.217,4.217V64l-4.217,4.217,4.217,4.244v1.406Zm-12.65-4.244V61.192h4.217V73.869Z" transform="translate(22.053 10.994)" fill-rule="evenodd"/>
  <path id="Path_19" data-name="Path 19" d="M133.844,61.192l-4.217-4.217H142.3v4.217Zm0,12.677-4.217-4.244V61.192h4.217l4.217,4.217h-4.217v4.217h8.434v4.244Z" transform="translate(25.012 10.994)"/>
  <path id="Path_20" data-name="Path 20" d="M145.65,66.815,141.433,62.6V61.192l4.217-4.217h12.678l-4.245,4.217H145.65V62.6h4.216l4.217,4.217Zm-4.217,7.055,4.217-4.244h8.46V62.6l4.217,4.217v2.811l-4.217,4.244Z" transform="translate(27.29 10.994)"/>
</svg>
