<svg xmlns="http://www.w3.org/2000/svg" width="36" height="35.998" viewBox="0 0 36 35.998">
  <path id="airport-shuttle" d="M34.66,20.079A1.641,1.641,0,0,0,33.073,19H21.307a1.662,1.662,0,0,0-1.6,1.08L17.364,26.8v9.016A1.188,1.188,0,0,0,18.509,37h1.015a1.221,1.221,0,0,0,1.113-1.244V33.726H33.727v2.029A1.235,1.235,0,0,0,34.856,37h1A1.188,1.188,0,0,0,37,35.821V26.8Zm-13.353.556H33.073l1.685,4.909H19.622Zm-.671,9.818a1.636,1.636,0,1,1,1.636-1.636,1.641,1.641,0,0,1-1.636,1.636m13.091,0a1.636,1.636,0,1,1,1.636-1.636,1.641,1.641,0,0,1-1.636,1.636M10.262,23.139l.556,4.042L9.1,28.916l-2.88-5.2L1,20.816l1.735-1.767,4.091.605,6.333-6.333L1,6.923,3.324,4.616,18.362,8.085l6.365-6.365A2.453,2.453,0,0,1,28.2,5.188l-6.365,6.365,1.342,5.809H21.307a3.243,3.243,0,0,0-3.125,2.144l-.049.1-1.489-2.847Z" transform="translate(-1 -1.001)"/>
</svg>
