<svg width="66" height="66" viewBox="0 0 66 66" fill="none" xmlns="http://www.w3.org/2000/svg">
<path d="M33 66C51.2254 66 66 51.2254 66 33C66 14.7746 51.2254 0 33 0C14.7746 0 0 14.7746 0 33C0 51.2254 14.7746 66 33 66Z" fill="black"/>
<path d="M49.6916 16.7302L42.3796 15.0422C41.9939 14.9546 41.5898 15.0043 41.2368 15.1826C40.8838 15.361 40.604 15.6568 40.4456 16.0192L37.0706 23.8952C36.9264 24.2315 36.8958 24.6056 36.9833 24.9609C37.0708 25.3162 37.2717 25.6333 37.5556 25.8642L41.8166 29.3522C39.236 34.8254 34.8311 39.23 29.3576 41.8102L25.8696 37.5492C25.6384 37.2655 25.3211 37.0647 24.9657 36.9772C24.6104 36.8897 24.2361 36.9202 23.8996 37.0642L16.0266 40.4392C15.6623 40.5977 15.3647 40.8782 15.1849 41.2324C15.0051 41.5867 14.9545 41.9926 15.0416 42.3802L16.7296 49.6922C16.8154 50.0642 17.0248 50.396 17.3236 50.6336C17.6224 50.8712 17.9929 51.0004 18.3746 51.0002C22.6592 51.0007 26.9018 50.1572 30.8603 48.5178C34.8188 46.8784 38.4155 44.4753 41.4452 41.4457C44.4748 38.4161 46.8779 34.8193 48.5173 30.8608C50.1566 26.9024 51.0002 22.6597 50.9996 18.3752C51.0002 17.9933 50.8712 17.6226 50.6335 17.3238C50.3959 17.0249 50.0638 16.8156 49.6916 16.7302Z" fill="white"/>
</svg>
