<svg width="28" height="28" viewBox="0 0 28 28" fill="none" xmlns="http://www.w3.org/2000/svg">
<path d="M19.9609 17.2266H22.9609V20.2266H25.9609V23.2266H22.9609V26.2266H19.9609V23.2266H16.9609V20.2266H19.9609V17.2266Z" fill="black"/>
<path fill-rule="evenodd" clip-rule="evenodd" d="M1.96094 12.7266H10.9609C11.3594 12.7266 11.7422 12.5684 12.0234 12.2871C12.3047 12.0059 12.4609 11.625 12.4609 11.2266V2.22656C12.4609 1.82812 12.3047 1.44727 12.0234 1.16602C11.7422 0.884766 11.3594 0.726562 10.9609 0.726562H1.96094C1.5625 0.726562 1.17969 0.884766 0.898438 1.16602C0.617188 1.44727 0.460938 1.82812 0.460938 2.22656V11.2266C0.460938 11.625 0.617188 12.0059 0.898438 12.2871C1.17969 12.5684 1.5625 12.7266 1.96094 12.7266ZM9.42969 3.7207H3.45312V9.73047H9.42969V3.7207Z" fill="#3D82F7"/>
<path fill-rule="evenodd" clip-rule="evenodd" d="M1.96094 27.7266H10.9609C11.3588 27.7266 11.7403 27.5685 12.0216 27.2872C12.3029 27.0059 12.4609 26.6244 12.4609 26.2266V17.2266C12.4609 16.8287 12.3029 16.4472 12.0216 16.1659C11.7403 15.8846 11.3588 15.7266 10.9609 15.7266H1.96094C1.56311 15.7266 1.18158 15.8846 0.900277 16.1659C0.618973 16.4472 0.460938 16.8287 0.460938 17.2266V26.2266C0.460938 26.6244 0.618973 27.0059 0.900277 27.2872C1.18158 27.5685 1.56311 27.7266 1.96094 27.7266ZM9.42969 18.7207H3.45313V24.7305H9.42969V18.7207Z" fill="#35E9A1"/>
<path fill-rule="evenodd" clip-rule="evenodd" d="M16.9609 12.7266H25.9609C26.3588 12.7266 26.7403 12.5685 27.0216 12.2872C27.3029 12.0059 27.4609 11.6244 27.4609 11.2266V2.22656C27.4609 1.82874 27.3029 1.44721 27.0216 1.1659C26.7403 0.884598 26.3588 0.726562 25.9609 0.726562H16.9609C16.5631 0.726562 16.1816 0.884598 15.9003 1.1659C15.619 1.44721 15.4609 1.82874 15.4609 2.22656V11.2266C15.4609 11.6244 15.619 12.0059 15.9003 12.2872C16.1816 12.5685 16.5631 12.7266 16.9609 12.7266ZM24.4297 3.7207H18.4531V9.73047H24.4297V3.7207Z" fill="#F13939"/>
</svg>
