<svg xmlns="http://www.w3.org/2000/svg" width="65.642" height="65.642" viewBox="0 0 65.642 65.642">
  <path id="Icon_awesome-facebook-square" data-name="Icon awesome-facebook-square" d="M58.609,2.25H7.033A7.033,7.033,0,0,0,0,9.283V60.859a7.033,7.033,0,0,0,7.033,7.033h20.11V45.575H17.912v-10.5h9.231V27.065c0-9.106,5.421-14.136,13.725-14.136A55.923,55.923,0,0,1,49,13.638v8.938H44.421c-4.514,0-5.922,2.8-5.922,5.675v6.821H48.577l-1.612,10.5H38.5V67.892h20.11a7.033,7.033,0,0,0,7.033-7.033V9.283A7.033,7.033,0,0,0,58.609,2.25Z" transform="translate(0 -2.25)" fill="#1877f2"/>
</svg>
