<svg xmlns="http://www.w3.org/2000/svg" width="35.267" height="24.045" viewBox="0 0 35.267 24.045">
  <path id="hotel-outline" d="M1,28.045V4H4.206V20.03H17.03V7.206H29.855A6.174,6.174,0,0,1,34.383,9.09a6.174,6.174,0,0,1,1.884,4.529V28.045H33.061V23.236H4.206v4.809Zm9.618-9.618a4.789,4.789,0,0,1-4.809-4.809,4.789,4.789,0,0,1,4.809-4.809,4.789,4.789,0,0,1,4.809,4.809,4.789,4.789,0,0,1-4.809,4.809m9.618,1.6H33.061V13.618a3.215,3.215,0,0,0-3.206-3.206H20.236Zm-9.618-4.809a1.574,1.574,0,1,0-1.141-.46,1.552,1.552,0,0,0,1.141.46m9.618-4.809v0Z" transform="translate(-1 -4)"/>
</svg>
