<svg xmlns="http://www.w3.org/2000/svg" width="65.642" height="65.642" viewBox="0 0 65.642 65.642">
  <path id="Icon_awesome-linkedin" data-name="Icon awesome-linkedin" d="M60.953,2.25H4.674A4.709,4.709,0,0,0,0,6.983V63.159a4.709,4.709,0,0,0,4.674,4.733H60.953a4.721,4.721,0,0,0,4.689-4.733V6.983A4.721,4.721,0,0,0,60.953,2.25ZM19.839,58.515H10.11V27.188h9.744V58.515Zm-4.865-35.6a5.641,5.641,0,1,1,5.641-5.641,5.644,5.644,0,0,1-5.641,5.641Zm41.334,35.6H46.579V43.276c0-3.634-.073-8.308-5.055-8.308-5.07,0-5.846,3.956-5.846,8.044v15.5H25.949V27.188h9.333v4.278h.132a10.247,10.247,0,0,1,9.216-5.055c9.846,0,11.678,6.491,11.678,14.931Z" transform="translate(0 -2.25)" fill="#0a66c2"/>
</svg>
