<svg xmlns="http://www.w3.org/2000/svg" width="65.642" height="65.642" viewBox="0 0 65.642 65.642">
  <path id="Icon_awesome-twitter-square" data-name="Icon awesome-twitter-square" d="M58.609,2.25H7.033A7.035,7.035,0,0,0,0,9.283V60.859a7.035,7.035,0,0,0,7.033,7.033H58.609a7.035,7.035,0,0,0,7.033-7.033V9.283A7.035,7.035,0,0,0,58.609,2.25ZM51.444,25.518c.029.41.029.835.029,1.245,0,12.7-9.67,27.341-27.341,27.341A27.215,27.215,0,0,1,9.377,49.8a20.244,20.244,0,0,0,2.315.117,19.267,19.267,0,0,0,11.927-4.1,9.622,9.622,0,0,1-8.982-6.667,10.357,10.357,0,0,0,4.337-.176,9.61,9.61,0,0,1-7.692-9.436v-.117a9.6,9.6,0,0,0,4.337,1.216,9.589,9.589,0,0,1-4.278-8,9.49,9.49,0,0,1,1.3-4.85,27.286,27.286,0,0,0,19.81,10.051,9.63,9.63,0,0,1,16.4-8.777,18.83,18.83,0,0,0,6.1-2.315,9.585,9.585,0,0,1-4.22,5.289,19.124,19.124,0,0,0,5.539-1.495A20.227,20.227,0,0,1,51.444,25.518Z" transform="translate(0 -2.25)" fill="#1da1f2"/>
</svg>
